<svg version="1" xmlns="http://www.w3.org/2000/svg" width="1066.667" height="1066.667" viewBox="0 0 800.000000 800.000000"><path d="M379.9 18.4c-.2.2-4.7.6-9.9 1-5.2.3-10.6.8-12 1-1.4.2-5.2.7-8.5 1.1-3.2.4-6.8.9-8 1.1-1.1.2-5.8 1.1-10.5 1.9-9.7 1.7-11 2-16.5 3.3-13.9 3.4-28.4 7.6-37.5 10.7-85 29.6-154.3 84.9-202.2 161.2-10.2 16.2-33 62.4-31.5 63.9.1.1 5.9 2.5 12.9 5.2l12.6 4.9 2.4-5.6c1.4-3.1 4-9 5.8-13.1 15.5-35.4 41.5-73.2 70.4-102.5 43.2-43.6 92.2-73.3 150.1-91 11.5-3.5 22.2-6.4 26.5-7.1 1.4-.3 5.7-1.1 9.5-1.9 3.9-.7 8.8-1.6 11-2 2.2-.3 5.1-.8 6.5-1 3.1-.5 10-1.3 21-2.3 16.6-1.4 60.2-.7 69.6 1.2 1.1.2 4.5.7 7.5 1 4.6.5 11.8 1.7 24.4 4.1 13 2.5 48.7 13.1 57 16.9 1.7.8 5.4 2.4 8.3 3.5 2.8 1.1 11.2 5 18.5 8.5 48.1 23.6 89.4 57.3 124.7 102.1 1.8 2.2 3.6 4 4.2 4 1.2 0 21.7-14.7 21.7-15.6.1-.9-11.2-15.4-18.7-23.9-8.2-9.4-29.8-30.9-37.6-37.5-3.3-2.8-7.3-6.2-9-7.6-1.7-1.4-8.3-6.4-14.6-11.1-36.7-27.1-77.6-47.3-121.1-59.8-13.4-3.8-37.5-9.2-46.9-10.4-2.5-.3-5.4-.8-6.5-1-1.1-.2-5.1-.7-9-1.1-3.8-.4-8.6-.9-10.5-1.2-4.6-.5-53.5-1.4-54.1-.9z"/><path d="M378.8 62.5c-.1.1-3.4.6-7.3 1-12.1 1.1-15.8 1.6-22 2.6-8 1.2-10.1 1.6-18.8 3.4-7.2 1.5-19 4.5-19.5 4.9-.6.7 5.7 24.7 6.8 25.9.4.5 4.3 0 8.6-1.1 4.4-1.1 10.6-2.5 13.9-3.1 3.3-.6 6.9-1.3 8-1.5 4.2-.8 10.2-1.7 14.5-2.2 15.1-1.6 20.5-1.9 38.5-1.9 28 0 40.2 1.2 65.1 6.5 17.5 3.8 15.8 3.3 29.4 7.6 77.5 24.4 143.8 79.5 181.6 150.8 3.1 5.8 5.8 10.6 6.1 10.6 1.6 0 24.3-11.6 24.3-12.4 0-.5-2.6-5.7-5.7-11.5-39.7-74.2-107.7-132.7-186-160.2-4.8-1.7-9.7-3.4-10.8-3.9-7.7-3.2-43-11-58.5-13-4.7-.6-10.1-1.3-12-1.6-3.9-.5-55.6-1.4-56.2-.9z"/><path d="M372.5 103.1c-30.1 3.2-57 9.5-82.5 19.4-9.5 3.7-36.3 16.5-41 19.6-1.4.9-5.6 3.6-9.5 6-6.1 3.8-21.1 14.3-26.9 18.9-11.3 8.9-32.4 29.5-42.8 42-9.9 12-26.4 34.9-25.5 35.6.2.1 19.8 12.2 22.4 13.7.8.5 3-2 6.4-7 22.3-33.1 49.4-59.5 83.4-80.9 28.2-17.7 69-32.8 100-37 2.8-.3 5.2-.7 5.5-.9 1.6-1 21.2-2 37.5-2 16.9 0 27.9.6 35.5 1.9 1.4.3 4.3.7 6.5 1 25.3 3.3 57 13.8 83.3 27.7 6.3 3.2 11.5 5.9 11.7 5.9.4 0 5.8-8.6 8.7-14 1.1-1.9 2.9-4.9 3.9-6.6l1.9-3.1-11.3-6.1c-6.1-3.3-15.7-7.9-21.2-10.2-5.5-2.3-10.9-4.6-12-5.1-16.1-7.1-50.9-15.5-77.5-18.6-7.3-.8-48.8-1-56.5-.2zM370.7 294.6c-.1.1-3.9.5-8.4.8-15.1 1.3-32.6 7.2-42.3 14.5-9.7 7.3-15.7 15.9-20 28.6-2 5.8-2.4 9.1-2.5 19 0 13.6.4 16.8 3.3 24.3 4.5 11.7 14.4 20.6 29.5 26.6 7.4 3 23.8 6.9 48.2 11.6 29.6 5.7 38.8 10.2 44 21.3 5.9 12.4-.5 27.8-14 33.8-11.9 5.3-34.9 6.2-47.3 2-13.7-4.7-22.3-13.2-24.7-24.5-.3-1.4-.7-3.7-1-5.1l-.5-2.5-20.8.2c-17.6.3-20.7.5-20.6 1.8.7 18.2 8.7 35.7 21.5 47.3 9.2 8.4 26.8 16.4 40.1 18.2 10.8 1.5 15.4 1.9 25.3 1.9 30.7-.1 52.7-7.4 68-22.8 12.1-12.2 17.5-26 17.6-45.3 0-5.6-.2-10.6-.4-11-.3-.5-.8-2.6-1.1-4.8-.8-5.5-6.8-17.2-10.8-21.5-9.4-9.8-23.8-16.5-43.8-20.4-1.4-.2-9.9-1.9-19-3.6-29.9-5.6-41.7-9.6-47.9-16.1-7-7.3-6.1-22.1 1.9-29.9 6.5-6.3 14.6-9.1 27.9-9.5 16.2-.4 27.2 2.8 35.4 10.5 5 4.5 7.5 9 9.2 16.5l1.1 5 20.2.3 20.2.2-.6-6.7c-3.1-38.5-30.5-59.3-79.7-60.6-4.3-.2-7.9-.2-8-.1zM142 403v105l71.8-.2 71.7-.3v-35l-50.2-.3-50.1-.2-.1-80.3c0-44.1 0-83.2-.1-87V298h-43v105zM499 403v105h21.5c19.8 0 21.5-.1 21.6-1.8 0-.9.1-19.6.1-41.5l.1-39.7 4.6-.1c18.9-.2 52.1.2 54.6.7 8.1 1.7 14.4 7.8 16.1 15.4.4 1.9.7 13.4.6 25.5-.1 22.7.4 27.3 3.9 36.2l2.1 5.3H671v-3.6c0-2.9-.7-4.3-3.5-6.9-2-1.7-4-4.7-4.5-6.6-.6-1.9-1.2-10.6-1.5-19.5-.6-20.1-1.2-29.3-2.4-36.6-1-5.8-3.8-13-6.3-15.8-2.5-2.9-9.3-7.6-14.6-10l-5.3-2.4 5.8-2.9c15.1-7.5 24.6-19.4 27.9-34.9 1.2-6.1 1.3-22.5 0-27.8-.3-1.4-.9-3.9-1.2-5.5-2.6-11.9-13.4-25.4-24.8-31-12.7-6.3-14.4-6.4-81.3-6.5H499v105zm114-65.8c9.2 4.6 12.8 13.2 11.6 27.6-.7 8.8-3.4 15.2-8 18.6-6.3 4.7-9 5-42.6 5.1h-31.5l-.1-27.3-.2-27.3 32.7.3 32.6.3 5.5 2.7zM724.8 548.3c-3.8 8.9-13.7 27.6-19.8 37.6-23.3 38.7-54.7 73.4-90 100-5.2 3.9-9.9 7.4-10.5 7.9-3.1 2.3-23.4 15.2-24.1 15.2-.4 0-1.5.6-2.3 1.4-1.9 1.7-31.4 16.5-39.1 19.6-3 1.2-6.4 2.6-7.5 3.1-1.1.5-4.7 1.8-8 3-3.3 1.1-6.7 2.3-7.5 2.6-2 .8-1.6.7-17 5.3-11.5 3.4-36 8.7-48 10.4-27.8 3.8-68.2 4.3-92.5 1-19.2-2.5-44.4-7.5-55-10.9-2.2-.7-6.5-2-9.5-3-46.9-14.4-94.5-41.7-131.3-75.3l-4.9-4.4-4 4.3c-2.2 2.4-6.5 7-9.6 10.2l-5.7 5.8 4 3.7c5.8 5.5 21.2 18.2 29.7 24.4 8.1 6 28.5 19.8 29.2 19.8.3 0 2.4 1.3 4.8 2.9 12.5 8.3 47.7 24.6 70.4 32.4 16.9 5.9 44.7 13 59.4 15.2 1.9.2 6.4.9 10 1.5 17.8 2.7 29.1 3.4 54.5 3.4 19.7.1 26.9-.2 43.8-1.9 18.9-1.8 50.4-8.6 72.6-15.6 47.9-15.2 92.5-39.9 132.1-73.3 9.9-8.3 34.4-32.5 41.8-41.2 22-26.1 37.7-49.9 52.8-79.9l9.5-18.9-5.3-2.5c-2.9-1.3-8.8-3.9-13-5.7l-7.7-3.3-2.3 5.2z"/><path d="M619.8 556.1c-29.8 41.7-70.8 74.3-117.6 93.4-20.6 8.4-43.6 14.9-60.5 17.1-1.5.2-4.7.6-7 .9-12.3 1.9-20.2 2.2-40.2 1.9-12.1-.2-23.1-.5-24.5-.8-1.4-.2-5.9-.9-10-1.5s-8.6-1.3-10-1.6c-1.4-.2-5-1-8-1.6-26-5.2-54.6-16.3-80.7-31.4l-6.3-3.6-2 3.3c-1 1.8-4.3 7.1-7.3 11.8l-5.4 8.4 4.2 2.7c33.6 21.3 80.1 36.7 126 41.6 13.4 1.5 54 .8 67-1.2 6.6-.9 12.9-1.9 14-2 10.5-1.5 44.6-10.9 54-15 1.7-.7 7.1-2.9 12-5 41-16.9 83.9-49.4 113.1-85.5 13-16.1 17.2-22.4 15.8-23.8-.7-.6-1.6-1.2-1.9-1.2-.3 0-4.8-2.9-10-6.5-5.3-3.6-9.7-6.5-9.9-6.5-.3 0-2.4 2.7-4.8 6.1z"/><path d="M116.5 562.8c-5.5 3.1-10.6 6.1-11.3 6.5-1 .7-.7 1.9 1.4 5.5 1.5 2.6 3.3 5.6 3.8 6.7.6 1.1 3.7 6 7 11 26.6 40.6 65.2 78 107.1 103.5 44.3 27.1 96 44.2 147.4 48.7 17 1.5 58.1.8 71.8-1.2 1.8-.3 4.7-.7 6.4-.9 1.7-.3 3.3-.6 3.4-.8.7-.7-3.1-25.1-4.1-26.9-.2-.3-2.7-.2-5.6.2-18.5 3-63.2 3.2-81.8.4-20.2-3-34.3-6.1-50.5-11-75.5-22.9-139-73.1-179.6-141.8-1.8-3.1-3.8-5.7-4.4-5.6-.5 0-5.5 2.6-11 5.7z"/></svg>