<svg version="1" xmlns="http://www.w3.org/2000/svg" width="682.667" height="682.667" viewBox="0 0 512.000000 512.000000"><path d="M241.9 14.4c-.2.2-4.5.6-9.6 1-5 .3-9.7.8-10.5 1-.7.3-2.9.7-4.8 1-1.9.3-4.5.8-5.6 1-1.2.2-3.7.7-5.5 1-5.9.9-24.8 6.5-34.8 10.3-61.9 23.1-113.6 72.9-138.5 133.5-3 7.3-3.4 9.1-2.5 11.1 2 4.5 7.5 5.3 10.6 1.6.6-.8 2.1-3.9 3.3-6.9 4.9-12.6 20.8-41.1 26-46.8.9-.9 3.5-4.2 5.7-7.3 9.1-12.4 32.6-34.8 47.8-45.7 10.9-7.8 29.3-18.1 42.2-23.6 16.9-7.2 41.7-14.2 56.8-16.1 2.8-.4 7.7-1 11-1.5 6.1-.9 45.3-.6 49 .3 1.1.3 4.3.8 7 1.1 2.8.4 7.3 1.1 10 1.6 2.8.6 5.9 1.2 7 1.4 28.8 5.6 62.7 21.6 91 42.9 9.4 7.1 30.3 27.8 39.3 38.9 5 6.3 6.7 7.8 9 7.8 3.3 0 4.5-.8 6.1-3.7 1.5-3 0-5.9-8-15.5-29.7-35.6-66.2-60.9-109.1-75.7-6.2-2.1-15.6-4.8-20.8-6.1-9.1-2.1-10.4-2.4-16-3.4-3.1-.6-11-1.6-17-2.2-6.7-.7-38.5-1.5-39.1-1z"/><path d="M243.8 42.5c-.2.2-3.8.6-8 .9-14.4 1.2-36.2 5.9-39 8.4-1.8 1.5-2.3 4.7-1.2 7.7 1.1 2.9 4.7 3.5 11.5 1.9 20.3-4.8 29.8-5.9 50.9-5.9 13.7 0 21.5.5 30 1.9 1.4.3 4.1.7 6 1 18 2.7 52.8 15.8 66.3 25 2.1 1.4 4 2.6 4.3 2.6.3 0 3.5 2.1 7.2 4.7 28.2 19.9 48.8 43.1 65 73.3 1.9 3.6 4.2 7 5.1 7.7 4.1 3.1 10.8-.7 9.8-5.6-.7-3.3-10.1-20.4-16-29.1-20.6-30.2-51.9-57.3-84.7-73.2-15.3-7.4-39.3-15.6-51-17.3-2.5-.4-4.7-.8-5-1-.5-.3-5.4-1-15.5-2.1-5.2-.6-35.2-1.3-35.7-.9z"/><path d="M236 68.7c-8.1.9-26.1 4.6-34 6.9-42.4 12.5-79.9 40.3-104.5 77.6-5.3 8.1-4.8 13 1.5 14.1 3.2.6 5.6-1.4 10-8.3 4.6-7.3 17.1-22.1 24.4-29 3.2-3 6.6-6.2 7.5-7.1 7.2-6.9 26.6-19.4 39.6-25.4 15.3-7.2 36.1-13.3 50.4-15 3-.4 6.3-.9 7.5-1.1 3-.6 27.1-.6 34.1.1 21.3 1.9 43.6 8.6 64.1 19.1 5.7 3 11.1 5.4 12 5.4 2.6 0 6.4-4.6 5.9-7.1-.7-3.5-3-5.3-14-10.7-16.4-8.2-37.8-15.3-53-17.6-2.2-.4-5.6-.9-7.5-1.2-4.3-.7-39.2-1.3-44-.7zM242.5 198c-26.9 3.9-43.2 20.8-41.9 43.7.5 8.2 3.9 15.8 9.7 21 7.9 7.3 19.6 12 41.7 16.8 19.2 4.2 27.9 8.9 27.5 15-.1 1.1-.2 3-.3 4.2-.3 3.3-5.6 7.9-11.2 9.8-8.4 2.8-25.6 2.2-34.5-1.3-6.1-2.3-12.1-7-16.6-12.8l-4.1-5.3-2.6 3.2c-5.3 6.3-6.7 8-9.9 11.6-1.8 2-3.3 4-3.3 4.6 0 1.6 8.3 9.9 13.3 13.4 10.8 7.4 22 10.3 41.2 10.6 10.8.2 15.8-.2 21.7-1.6 23.8-5.7 36.1-19.5 35.3-39.6-.5-12.3-5.9-21-17-27.3-7.1-4-23.1-9-33.8-10.5-5.9-.9-17.3-4.3-21-6.4-9.3-5.2-9.4-16.8-.2-22.8 5.1-3.4 11.6-4.6 21.3-4.1 13.6.8 22.8 5.8 29.3 15.9l3.2 5.1 9.3-9.3 9.3-9.3-3.1-3.9c-7.9-9.9-22.2-17.9-36.3-20.2-6-1-21.3-1.3-27-.5zM86.1 265v66h96.8l.3-4.3c.2-2.3.2-7.2 0-10.9l-.4-6.8-34.5-.2-34.6-.3V199H86.2l-.1 66zM334.2 265v66H361l.1-2.8c.1-1.5.2-12.8.3-25.2l.1-22.5h11.8c6.5 0 12.2.2 12.6.5.4.3 5.2 7.7 10.6 16.5 5.4 8.8 12.2 19.9 15.2 24.7l5.5 8.8H448l-4.3-6.8c-2.4-3.7-9.1-13.9-14.8-22.7-11.8-18-14.9-23-14.9-23.8 0-.3 2.4-1.7 5.3-3 7.8-3.7 13.2-8.9 16.9-16.5 3.2-6.4 3.3-7.2 3.3-18.2s-.2-11.8-3.3-18.2c-3.8-7.8-10.1-13.9-18.2-17.5-9.9-4.5-15.7-5.1-52.1-5.2l-31.7-.2V265zm65.6-42.1c6.7 2.3 9.7 5.2 11.1 10.6 1.5 6.1 1.4 10.8-.5 15.5-3.4 8.3-10.4 10.6-33.1 10.5h-15.8l-.1-19.3-.1-19.3 16.6.1c13.1.1 17.8.6 21.9 1.9zM470.3 345.6c-.7.3-3.6 5.3-6.4 11.2-7.7 15.6-14.1 26.1-24.1 39.4-38.7 51.4-98.4 84.6-162.8 90.5-9.5.9-33.4.8-42.5-.1-6.6-.7-20.9-2.9-26.5-4.1-1.4-.4-3.6-.8-5-1.1-1.4-.3-5.6-1.4-9.5-2.5-33.5-9.7-64.7-27.1-92-51.3-5.6-5-10.3-4.8-12.3.5-1.6 4.2.2 6.5 15.3 18.7 15.9 13 39.5 27.1 57.5 34.5 16 6.6 38.4 13.3 50.4 15.1 2.1.4 4.8.8 6 1.1 14.9 3.1 54.9 3.7 68.5 1 1.3-.2 4.9-.7 8-1.1 8.6-1 32.4-7.1 44.6-11.6 23.1-8.4 49.4-23.2 68.5-38.4 7.5-6.1 24.1-22 31.6-30.4 6.8-7.6 16.7-21 22.8-30.9 7.2-11.7 17.6-32.4 17.6-35.1 0-4.1-5.4-7.1-9.7-5.4z"/><path d="M404.4 350.3c-1 .5-4.9 5-8.6 10.1-28.4 38.7-74.9 65.3-122.8 70.1-13.4 1.3-38.2.3-48.2-2-1.3-.2-3.4-.7-4.8-.9-14.8-2.4-31.8-9.1-55.9-22-5.9-3.2-9.4-2.6-11.1 1.9-1.5 4 0 6.1 7.8 10.8 16.5 9.9 41 19.3 58 22.2 1.7.3 4.7.8 6.5 1.1 10.7 1.8 18.2 2.2 34.7 1.9 10.2-.2 19.9-.6 21.5-1 1.7-.3 7.4-1.5 12.8-2.6 39.5-8 77.5-30.7 104.3-62.4 6.8-8 13.3-17 14.3-19.8 1.9-4.9-3.6-9.7-8.5-7.4z"/><path d="M70 356c-2.9 2.9-2.5 5.6 2.2 13.4 34 57.3 92.2 95.2 159.8 104 9.9 1.3 42.9 1.5 49 .3 1.4-.3 4.5-.8 6.8-1.1 6.2-.9 8-3.2 7.3-9.4-.2-2.6-5.9-4-11.4-2.9-9.2 1.8-53 1.3-58.9-.8-.7-.2-2.6-.6-4.3-.8-4.4-.7-20.1-4.6-23.3-5.8-1.5-.6-3.4-1.2-4.2-1.4-.8-.2-4.6-1.5-8.5-3-31.2-11.8-62.6-34.6-83.5-60.5-2.5-3-4.8-5.7-5.1-6-.4-.3-3.8-5.5-7.7-11.5C77.6 353.8 74.6 351.4 70 356z"/></svg>