<svg version="1" xmlns="http://www.w3.org/2000/svg" width="1066.667" height="1066.667" viewBox="0 0 800.000000 800.000000"><path d="M379.9 20.4c-.2.2-4.4.6-9.4.9-26.8 1.7-62.9 9-90.5 18.4-95.2 32.2-173 99.1-218.4 187.7-8.9 17.4-17.6 37.8-17.6 41.4 0 6.7 7.8 13.1 14.1 11.7 3.1-.7 8.9-5 8.9-6.6 0-.6.9-2.9 1.9-5.2 1-2.3 3.1-7.1 4.6-10.7 12.3-29.3 35.1-65.2 58.7-92.4 7-8 25.9-26.9 32.7-32.6 2.9-2.5 6.5-5.5 8-6.8 5.3-4.7 25-19.2 33.2-24.5 32.5-20.9 66.3-35.9 103-45.6 11.8-3.1 23.8-5.8 29.9-6.7 1.9-.2 4.4-.6 5.5-.9 1.1-.2 4.3-.7 7-1 2.8-.3 5.9-.8 7-1 13.2-2.6 72.5-2.6 84.9 0 1.1.2 3.9.6 6.1.9 13.3 1.7 35.2 6.3 48 10.1 5 1.5 10.4 3 12 3.4 3.8 1 23.3 8.1 30.5 11.2 12.8 5.5 42.2 20.7 42.8 22.1.2.5.8.8 1.3.8 3 0 34.7 22.8 50.3 36.2 6.3 5.4 29.8 28.7 35.1 34.8 3.9 4.4 16.3 19.9 17.3 21.4 1.8 2.9 6.7 5.6 10.1 5.6 6.8 0 12-5.3 12.1-12.2 0-3.7-2.7-7.9-14.4-22.3-15.6-19.1-42.7-45.2-63.1-60.6-50.8-38.5-112.3-64.6-173-73.4-2.2-.4-4.7-.8-5.5-1-.8-.2-5.1-.7-9.5-1.1-4.4-.3-8.4-.9-8.9-1.2-1-.5-54.1-1.3-54.7-.8z"/><path d="M380.8 64.4c-.1.2-4.1.6-8.8 1-9.2.7-9.8.8-27.5 3.6-16.8 2.7-35.5 7.7-38.2 10.2-6.2 5.8-4.7 15.5 2.8 19.4 3 1.5 6.1 1.5 11.7 0 4.4-1.2 5.8-1.5 17.7-4 6.6-1.4 14-2.8 16.5-3.1 2.5-.3 5.6-.8 7-1 13.2-2 51.3-2.7 68.5-1.2 30.2 2.6 62.4 10.6 93.5 23.3 19.2 7.9 50.1 25.8 68.4 39.7 35.7 27.1 67.6 64.8 87.9 103.8 6.2 11.9 7.4 13.5 10.9 15 8.5 3.5 17.7-3 16.5-11.6-.5-3.8-7.2-17.3-14.3-29.2-43.6-72.3-108-123.8-186.9-149.7-19.4-6.3-46.7-12.4-64-14.1-3.8-.4-7.9-1-9-1.2-2.3-.5-52.1-1.3-52.7-.9z"/><path d="M377.5 104.7c-27.3 3-26.3 2.9-42.7 6.4-48.5 10.5-95.8 34.6-132.4 67.4-8.4 7.6-24.5 23.9-29 29.5-1.6 1.9-3.1 3.7-3.5 4-1.1.9-17 22.3-18.1 24.4-.6 1.2-1.4 2.3-1.8 2.6-.4.3-2 2.9-3.5 5.8-3.4 6.6-3 11.2 1.5 15.7 2.6 2.5 3.8 3 7.9 3 6.1 0 8.2-1.8 15.5-13 33.6-51.4 86.9-91.6 145.6-109.8 12.6-3.9 27.3-7.5 33-8.2 1.3-.1 7.7-1.2 12.1-2 14.2-2.7 60.3-2.6 73.9 0 1.3.3 4.2.7 6.5 1 3.5.5 7.2 1.2 16 2.9 23.1 4.6 56.8 17.9 78.4 30.9 6.5 3.9 15 1.5 17.7-5 2-4.6 1.7-7.5-.8-11.3-5-7.1-42-24.5-69.8-32.6-4.7-1.4-9.3-2.7-10.3-2.9-1-.2-2.8-.7-4-1.1-1.2-.4-3.1-.8-4.2-1-1.1-.2-5.1-1-9-1.8-7.5-1.6-12-2.3-19.3-3.1-2.6-.3-6.3-.8-8.2-1.1-4.1-.6-47.1-1.2-51.5-.7zM377 308.5c-31.4 5-52.5 20.3-61.2 44.5-3.1 8.8-3.3 28.5-.4 37 7.8 22.7 27.2 34.2 76 45 26.7 5.9 37.3 10 42.4 16.5 6.6 8.4 1.5 22.1-10.3 27.5-7.2 3.3-12.8 4.3-25.5 4.5-29.2.5-48.8-8.4-62.1-28.2l-3.5-5.2-12.6 15.2c-10.1 12.1-12.4 15.5-11.7 16.9 1.9 3.6 12.5 14.1 18.5 18.4 18.1 12.9 41.1 18.6 72.4 17.9 17.6-.4 20.4-.7 31.8-3.6 25.9-6.6 44.1-22.6 49.6-43.7 1.8-6.7 1.8-21.9 0-28.8-4.7-18.2-17-29.6-41.4-38.2-7.6-2.6-21.3-6.4-28-7.6-23.4-4.3-36-8-43.2-12.9-13.2-8.9-12.1-26.2 2.4-35.3 11.4-7.3 38.2-7.9 54-1.3 10.3 4.3 20.9 13.9 26 23.6 1.3 2.4 2.5 4.3 2.8 4.3 1 0 29-27.9 29-28.9 0-1.8-17.4-18.6-23.3-22.5-11.3-7.4-25.4-12.7-40.2-15.1-8.3-1.3-33-1.3-41.5 0zM134 317.7c-.1 12.6-.1 187.3-.1 193.1l.1 5.2 75.7-.2 75.8-.3v-34.2l-54.3.1-54.2.1V310h-43v7.7zM521.9 313.2v199.5l.1 3.3h21c16.1 0 21-.3 21.1-1.3 0-.6.1-18.4.2-39.5V437l19.5.2 19.4.3 19.1 31c10.4 17 19.5 32 20.1 33.2.6 1.3 1.4 2.3 1.9 2.3.4 0 .7.5.7 1.1 0 .6 1.4 3.3 3.2 6l3.1 4.9h24c13.4 0 23.7-.4 23.5-.9-.3-.9-11.5-18.3-24.3-37.9-18.8-28.8-28.7-44.3-28.4-44.6.2-.1 4.3-2.2 9.1-4.5 13.6-6.6 23.6-17.6 28.5-31.1 3.9-10.7 4.6-28.4 1.8-40.5-4.4-18.4-17.9-33.5-36.2-40.4-14.4-5.4-19.8-5.8-75.5-6l-51.8-.2-.1 3.3zm99.5 32.7c16.3 3.9 23.8 16 21.4 34.4-1.7 12.7-8.4 19.6-22.5 22.7-3.7.9-48.2 1.7-54.9 1.1-.7-.1-1.1-9.3-1.1-29.9v-29.8l26.1.2c15.6.1 28 .6 31 1.3zM732.9 539.2c-1.4 1.3-6.5 10.2-11.2 19.8-18.7 38.1-38.2 65.5-67.7 95-18.2 18.3-21.1 20.8-39.3 34.5-41 30.9-91.8 53.9-141.5 64-11.4 2.3-13.4 2.7-23.7 4-2.7.4-6.1.9-7.5 1.1-15 2.5-73.7 2.5-83-.1-.8-.2-4-.6-7.1-1-3.1-.3-6.7-.8-8-1-1.3-.3-3.7-.7-5.4-1-50-8.5-102.5-30.4-144-60.2-3.3-2.4-7.1-5.1-8.5-6-2-1.5-14-11.5-29.3-24.5-8.1-6.9-18.9-2.9-20.1 7.3-.5 4.5 1.1 7.4 7.6 13.4 28.5 26.7 70.2 53.6 107.3 69 5 2 10.4 4.3 12 5 4.7 2.1 30.4 10.5 37 12.1 6.8 1.7 22 5.3 25 6 1.1.2 4.9.9 8.5 1.4 3.6.6 7.6 1.3 8.9 1.5 6.5 1.1 14.9 2.2 26.1 3.2 16.6 1.5 64.6.8 74.6-1.1 1-.2 4.6-.7 7.9-1.1 15.6-1.8 40.4-7.1 60.5-13.1 35.8-10.6 76.9-30.8 109-53.5 5.2-3.7 27-20.8 31.5-24.8 5.7-5.1 30.4-29.8 34.5-34.6 23.5-27.2 42.8-56.3 57.5-87 7.5-15.7 7.9-16.7 7.1-21.1-1.1-5.6-4.8-8.7-10.9-9.1-4.3-.3-5.6 0-7.8 1.9z"/><path d="M631.5 544.9c-2.5 1.1-5.3 4-8.5 8.6-19.4 28.3-47.2 55.7-74 72.9-4.1 2.7-8.8 5.8-10.4 6.9-5.1 3.5-25.7 13.8-36.6 18.2-25.9 10.6-49 16.4-77 19.3-13.3 1.4-58.9.5-61.9-1.2-.3-.2-2.9-.6-5.6-1-4.7-.5-17.4-3.1-27.5-5.6-20-4.8-49.6-17.3-69.5-29.2-9.3-5.5-13.2-6.5-17.3-4.4-5.4 2.8-7.8 7.4-6.8 12.9.6 3 4.5 8.7 6 8.7.3 0 2.5 1.1 4.7 2.6 13.8 8.7 35.5 19 54.6 25.9 18.3 6.6 50.4 13.6 69.8 15.3 16.4 1.4 60.1.6 65.7-1.3.7-.2 3.7-.6 6.7-1 22.1-2.4 58.3-13.7 83.9-26.1 16-7.9 37.9-21.2 47.3-28.8 1.4-1.2 4.1-3.2 5.9-4.6 9-6.6 29.7-26.1 38.5-36.1 7.3-8.3 16.6-20.1 22.1-27.9 5.2-7.5 5.9-9.1 5.9-13.2 0-4-.5-5.3-3.1-7.9-3.3-3.3-9.2-4.6-12.9-3z"/><path d="M111.5 552.4c-8.6 3.8-9.4 11.1-2.6 22.6 53.7 91.1 144.1 151.7 247.6 165.9 15 2.1 22.8 2.5 44 2.6 31.1 0 52.1-2 58.2-5.6 5.2-3.2 6.7-10.1 3.3-15.6-3.2-5.4-6.8-6.6-15.8-5.4-24.4 3.3-64.6 3.6-83.2.7-1.4-.2-4.7-.7-7.5-1.1-61.9-8.2-127.9-41.2-174.2-87.3-10.5-10.4-14.8-15.1-24.4-26.6-7.7-9.3-18.4-24.8-27.1-39.6-6.5-10.8-11.3-13.7-18.3-10.6z"/></svg>