<?xml version="1.0" encoding="UTF-8"?>
<svg width="375px" height="200px" viewBox="0 0 375 200" version="1.1" xmlns="http://www.w3.org/2000/svg" xmlns:xlink="http://www.w3.org/1999/xlink">
    <!-- Generator: Sketch 46.2 (44496) - http://www.bohemiancoding.com/sketch -->
    <title>full-logo</title>
    <desc>Created with Sketch.</desc>
    <defs></defs>
    <g id="Page-1" stroke="none" stroke-width="1" fill="none" fill-rule="evenodd">
        <g id="Best-Copy-1" transform="translate(-113.000000, -200.000000)">
            <path d="M132.632,274.512 L121.832,274.512 L121.832,327 L157.76,327 L157.76,318 L132.632,318 L132.632,274.512 Z M200.888,290.496 C200.888,276.168 188.432,273.648 180.296,273.648 C167.696,273.648 160.424,279.552 160.424,289.776 C160.424,297.912 164.528,301.872 175.184,303.888 L182.528,305.328 C189.728,306.696 192.392,308.712 192.392,312.96 C192.392,317.352 188.36,320.016 181.808,320.016 C174.464,320.016 170.36,316.92 170,311.304 L159.488,311.304 C160.136,322.536 167.84,328.656 181.232,328.656 C194.768,328.656 202.76,322.32 202.76,311.664 C202.76,303.384 198.584,299.064 188.864,297.192 L180.656,295.608 C172.952,294.096 170.72,292.584 170.72,288.768 C170.72,284.808 174.248,282.288 179.792,282.288 C186.632,282.288 190.448,285.168 190.808,290.496 L200.888,290.496 Z M240.704,318 C240.704,314.112 240.848,314.688 240.848,312.456 C240.848,308.064 238.832,306.192 234.152,306.192 L221.768,306.192 L221.768,327 L210.968,327 L210.968,274.512 L239.12,274.512 C250.424,274.512 253.232,282.864 253.232,288.696 C253.232,295.104 250.28,299.352 244.376,301.656 C251.072,304.536 251.36,305.256 251.648,320.736 C251.648,323.04 252.296,324.12 253.952,325.056 L253.952,327 L242.36,327 C240.992,324.48 240.704,322.896 240.704,318 Z M242.432,290.208 C242.432,284.376 239.336,283.512 234.8,283.512 L221.768,283.512 L221.768,297.192 L234.8,297.192 C239.264,297.192 242.432,296.328 242.432,290.208 Z M293.336,304.392 L316.304,304.392 L316.304,295.392 L293.336,295.392 L293.336,283.512 L319.4,283.512 L319.4,274.512 L282.536,274.512 L282.536,327 L293.336,327 L293.336,304.392 Z M340.712,287.472 C352.88,287.472 360.008,295.176 360.008,308.352 C360.008,320.808 352.592,328.656 340.784,328.656 C328.832,328.656 321.56,320.88 321.56,308.064 C321.56,295.32 328.832,287.472 340.712,287.472 Z M340.784,295.608 C335.312,295.608 331.64,300.648 331.64,308.064 C331.64,315.48 335.312,320.52 340.784,320.52 C346.184,320.52 349.928,315.48 349.928,308.208 C349.928,300.576 346.328,295.608 340.784,295.608 Z M383.048,295.608 C387.152,295.608 389.096,297.552 390.248,302.664 L399.896,302.664 C399.176,293.16 392.84,287.472 383.12,287.472 C371.528,287.472 364.76,295.104 364.76,308.352 C364.76,321.168 371.456,328.656 382.976,328.656 C392.408,328.656 398.96,322.824 399.896,313.536 L390.248,313.536 C388.952,318.576 386.936,320.52 383.048,320.52 C377.936,320.52 374.84,315.912 374.84,308.352 C374.84,302.952 376.064,295.608 383.048,295.608 Z M440.576,327 L440.576,288.12 L430.496,288.12 L430.496,312.456 C430.496,317.064 427.256,320.088 422.36,320.088 C418.04,320.088 415.88,317.784 415.88,313.104 L415.88,288.12 L405.8,288.12 L405.8,315.192 C405.8,323.76 410.552,328.656 418.832,328.656 C424.088,328.656 427.616,326.712 430.496,322.392 L430.496,327 L440.576,327 Z M456.848,315.696 L446.984,315.696 C447.272,324.192 453.536,328.656 465.344,328.656 C478.952,328.656 482.336,320.88 482.336,315.48 C482.336,310.44 479.816,307.2 474.704,305.688 L461.96,302.016 C459.152,301.152 458.432,300.576 458.432,298.992 C458.432,296.832 460.736,295.392 464.264,295.392 C469.088,295.392 471.464,297.12 471.536,300.648 L481.256,300.648 C481.112,292.44 474.776,287.472 464.336,287.472 C454.472,287.472 448.352,292.44 448.352,300.432 C448.352,308.064 454.616,309.288 456.848,310.008 L468.872,313.752 C471.392,314.544 472.256,315.336 472.256,316.92 C472.256,319.296 469.448,320.736 464.768,320.736 C458.432,320.736 457.424,318.36 456.848,315.696 Z" id="LSR-Focus" fill="#000000"></path>
            <g id="Group" transform="translate(299.500000, 300.500000) rotate(2.000000) translate(-299.500000, -300.500000) translate(214.000000, 208.000000)" stroke="#000000" stroke-width="5">
                <path d="M160.29596,37.2921681 C143.459542,14.658807 116.530376,0 86.1826284,0 C46.9064578,0 13.3562865,24.5529664 0,59.1691496 M23.0606002,160.026777 C39.5740771,175.516112 61.7724836,185 86.1826284,185 C124.182747,185 156.822888,162.01653 171,129.172445" id="Oval-3"></path>
                <path d="M160,57.0885869 C146.726453,29.7998632 118.796372,11 86.4889104,11 C78.890054,11 71.5333591,12.0400291 64.5525756,13.985923 M15,132.800332 C28.9563304,157.97025 55.7400078,175 86.4889104,175 C90.7418421,175 94.9189187,174.674219 98.9966915,174.046178" id="Oval-3-Copy"></path>
                <path d="M47.9370823,152.173325 C58.8924738,159.033091 71.8539911,163 85.7446016,163 L85.7446016,163 C110.460174,163 132.23432,150.441121 145,131.373608 M121.948296,30.8516042 C111.340558,24.5924018 98.9632696,21 85.7446016,21 C60.0397555,21 37.5165171,34.584371 25,54.9468939" id="Oval-3-Copy-2"></path>
            </g>
        </g>
    </g>
</svg>