<?xml version="1.0" encoding="UTF-8"?>
<svg width="375px" height="200px" viewBox="0 0 375 200" version="1.1" xmlns="http://www.w3.org/2000/svg" xmlns:xlink="http://www.w3.org/1999/xlink">
    <!-- Generator: Sketch 46.2 (44496) - http://www.bohemiancoding.com/sketch -->
    <title>full-logo</title>
    <desc>Created with Sketch.</desc>
    <defs></defs>
    <g id="Page-1" stroke="none" stroke-width="1" fill="none" fill-rule="evenodd">
        <g id="Best-Copy-1" transform="translate(-113.000000, -200.000000)">
            <text id="LSR-Focus" font-family="FreeSansBold, FreeSans" font-size="72" font-weight="bold" fill="#000000">
                <tspan x="116.072" y="327">LSR Focus</tspan>
            </text>
            <g id="Group" transform="translate(299.500000, 300.500000) rotate(2.000000) translate(-299.500000, -300.500000) translate(214.000000, 208.000000)" stroke="#000000" stroke-width="5">
                <path d="M160.29596,37.2921681 C143.459542,14.658807 116.530376,0 86.1826284,0 C46.9064578,0 13.3562865,24.5529664 0,59.1691496 M23.0606002,160.026777 C39.5740771,175.516112 61.7724836,185 86.1826284,185 C124.182747,185 156.822888,162.01653 171,129.172445" id="Oval-3"></path>
                <path d="M160,57.0885869 C146.726453,29.7998632 118.796372,11 86.4889104,11 C78.890054,11 71.5333591,12.0400291 64.5525756,13.985923 M15,132.800332 C28.9563304,157.97025 55.7400078,175 86.4889104,175 C90.7418421,175 94.9189187,174.674219 98.9966915,174.046178" id="Oval-3-Copy"></path>
                <path d="M47.9370823,152.173325 C58.8924738,159.033091 71.8539911,163 85.7446016,163 L85.7446016,163 C110.460174,163 132.23432,150.441121 145,131.373608 M121.948296,30.8516042 C111.340558,24.5924018 98.9632696,21 85.7446016,21 C60.0397555,21 37.5165171,34.584371 25,54.9468939" id="Oval-3-Copy-2"></path>
            </g>
        </g>
    </g>
</svg>