<?xml version="1.0" encoding="UTF-8"?>
<svg width="200px" height="200px" viewBox="0 0 200 200" version="1.1" xmlns="http://www.w3.org/2000/svg" xmlns:xlink="http://www.w3.org/1999/xlink">
    <!-- Generator: Sketch 46.2 (44496) - http://www.bohemiancoding.com/sketch -->
    <title>small-logo</title>
    <desc>Created with Sketch.</desc>
    <defs></defs>
    <g id="Page-1" stroke="none" stroke-width="1" fill="none" fill-rule="evenodd">
        <g id="Best-Copy-5" transform="translate(-200.000000, -200.000000)">
            <path d="M246.5,274.512 L235.7,274.512 L235.7,327 L271.628,327 L271.628,318 L246.5,318 L246.5,274.512 Z M314.756,290.496 C314.756,276.168 302.3,273.648 294.164,273.648 C281.564,273.648 274.292,279.552 274.292,289.776 C274.292,297.912 278.396,301.872 289.052,303.888 L296.396,305.328 C303.596,306.696 306.26,308.712 306.26,312.96 C306.26,317.352 302.228,320.016 295.676,320.016 C288.332,320.016 284.228,316.92 283.868,311.304 L273.356,311.304 C274.004,322.536 281.708,328.656 295.1,328.656 C308.636,328.656 316.628,322.32 316.628,311.664 C316.628,303.384 312.452,299.064 302.732,297.192 L294.524,295.608 C286.82,294.096 284.588,292.584 284.588,288.768 C284.588,284.808 288.116,282.288 293.66,282.288 C300.5,282.288 304.316,285.168 304.676,290.496 L314.756,290.496 Z M354.572,318 C354.572,314.112 354.716,314.688 354.716,312.456 C354.716,308.064 352.7,306.192 348.02,306.192 L335.636,306.192 L335.636,327 L324.836,327 L324.836,274.512 L352.988,274.512 C364.292,274.512 367.1,282.864 367.1,288.696 C367.1,295.104 364.148,299.352 358.244,301.656 C364.94,304.536 365.228,305.256 365.516,320.736 C365.516,323.04 366.164,324.12 367.82,325.056 L367.82,327 L356.228,327 C354.86,324.48 354.572,322.896 354.572,318 Z M356.3,290.208 C356.3,284.376 353.204,283.512 348.668,283.512 L335.636,283.512 L335.636,297.192 L348.668,297.192 C353.132,297.192 356.3,296.328 356.3,290.208 Z" id="LSR" fill="#000000"></path>
            <g id="Group" transform="translate(214.000000, 208.000000)" stroke="#000000" stroke-width="7">
                <path d="M160.29596,37.2921681 C143.459542,14.658807 116.530376,0 86.1826284,0 C46.9064578,0 13.3562865,24.5529664 0,59.1691496 M23.0606002,160.026777 C39.5740771,175.516112 61.7724836,185 86.1826284,185 C124.182747,185 156.822888,162.01653 171,129.172445" id="Oval-3"></path>
                <path d="M160,57.0885869 C146.726453,29.7998632 118.796372,11 86.4889104,11 C78.890054,11 71.5333591,12.0400291 64.5525756,13.985923 M15,132.800332 C28.9563304,157.97025 55.7400078,175 86.4889104,175 C90.7418421,175 94.9189187,174.674219 98.9966915,174.046178" id="Oval-3-Copy"></path>
                <path d="M47.9370823,152.173325 C58.8924738,159.033091 71.8539911,163 85.7446016,163 L85.7446016,163 C110.460174,163 132.23432,150.441121 145,131.373608 M121.948296,30.8516042 C111.340558,24.5924018 98.9632696,21 85.7446016,21 C60.0397555,21 37.5165171,34.584371 25,54.9468939" id="Oval-3-Copy-2"></path>
            </g>
        </g>
    </g>
</svg>