<svg width="200" height="200" xmlns="http://www.w3.org/2000/svg">
  <g fill="none" fill-rule="evenodd">
    <path d="M71.58 120.342V129H33.672V77.52h10.764v42.822H71.58zM99.348 76.74c4.7840239 0 8.8919828.7929921 12.324 2.379 3.432017 1.5860079 6.447987 4.0949828 9.048 7.527l-7.41 7.254c-1.3520068-2.808014-3.1459888-4.9009931-5.382-6.279-2.2360112-1.3780069-5.0699828-2.067-8.502-2.067-3.1200156 0-5.5249915.5849942-7.215 1.755-1.6900085 1.1700058-2.535 2.7169904-2.535 4.641 0 1.7680088.8579914 3.1719948 2.574 4.212 1.7160086 1.0400052 4.8099776 1.9499961 9.282 2.73 4.6800234.8840044 8.3979862 1.9759935 11.154 3.276 2.756014 1.3000065 4.770994 2.9249902 6.045 4.875 1.274006 1.95001 1.911 4.380985 1.911 7.293 0 3.172016-.896991 5.914988-2.691 8.229-1.794009 2.314012-4.289984 4.094994-7.488 5.343-3.198016 1.248006-6.8509795 1.872-10.959 1.872-5.6680283 0-10.3089819-.792992-13.923-2.379-3.6140181-1.586008-6.5389888-3.990984-8.775-7.215l6.396-7.644c1.9240096 3.172016 4.1339875 5.368994 6.63 6.591 2.4960125 1.222006 5.5899815 1.833 9.282 1.833 3.3280166 0 5.8629913-.519995 7.605-1.56 1.7420087-1.040005 2.613-2.52199 2.613-4.446 0-1.404007-.8189918-2.573995-2.457-3.51-1.6380082-.936005-4.5629789-1.819996-8.775-2.652-4.8360242-.9880049-8.6969856-2.1579932-11.583-3.51-2.8860144-1.3520068-4.9789935-3.0159901-6.279-4.992-1.3000065-1.9760099-1.95-4.4199854-1.95-7.332 0-3.0680153.8319917-5.8369876 2.496-8.307 1.6640083-2.4700123 4.094984-4.406993 7.293-5.811s6.9549784-2.106 11.271-2.106zm51.636 32.526h-9.672V129h-10.608V77.52h22.698c5.876029 0 10.464983 1.3909861 13.767 4.173 3.302017 2.7820139 4.953 6.6949748 4.953 11.739 0 3.6920185-.909991 6.7859875-2.73 9.282s-4.419983 4.2899945-7.8 5.382L175.164 129h-12.09l-12.09-19.734zm-9.672-8.19h10.686c3.120016 0 5.420993-.6109939 6.903-1.833 1.482007-1.2220061 2.223-3.1069873 2.223-5.655s-.740993-4.4329939-2.223-5.655c-1.482007-1.2220061-3.782984-1.833-6.903-1.833h-10.686v14.976z" fill="#444"/>
    <path d="M174.29596 45.2921681C157.459542 22.658807 130.530376 8 100.1826284 8 60.9064578 8 27.3562865 32.5529664 14 67.1691496M37.0606002 168.026777C53.5740771 183.516112 75.7724836 193 100.1826284 193 138.182747 193 170.822888 170.01653 185 137.172445" stroke="#444" stroke-width="6" stroke-linecap="round"/>
    <path d="M174 65.0885869C160.726453 37.7998632 132.796372 19 100.4889104 19c-7.5988564 0-14.9555513 1.0400291-21.9363348 2.985923M29 140.800332C42.9563304 165.97025 69.7400078 183 100.4889104 183c4.2529317 0 8.4300083-.325781 12.5077811-.953822" stroke="#444" stroke-width="6" stroke-linecap="round"/>
    <path d="M62 160.045428C72.94829 166.98623 85.9014055 171 99.7830119 171 124.482563 171 146.242595 158.292761 159 139M136 38.8670159C125.386605 32.5980217 113.0027155 29 99.7769977 29 74.0584428 29 51.5231924 42.6056222 39 63" stroke="#444" stroke-width="6" stroke-linecap="round"/>
  </g>
</svg>
